<svg width="108" height="108" viewBox="0 0 108 108" fill="none" xmlns="http://www.w3.org/2000/svg">
<path d="M35 9C35 8.44772 34.5523 8 34 8H24C23.4477 8 23 8.44772 23 9V25.0254H35V9ZM65 99V83C65 80.7909 66.7909 79 69 79C71.2091 79 73 80.7909 73 83V99C73 99.5523 73.4477 100 74 100H84C84.5523 100 85 99.5523 85 99V83C85 80.7909 86.7909 79 89 79C91.2091 79 93 80.7909 93 83V99C93 103.971 88.9706 108 84 108H74C69.0294 108 65 103.971 65 99ZM85 9C85 8.44772 84.5523 8 84 8H74C73.4477 8 73 8.44771 73 9V24.0254C72.9998 28.9958 68.9705 33.0254 64 33.0254H14C13.4477 33.0254 13 33.4731 13 34.0254V44.0449C13 44.5972 13.4477 45.0449 14 45.0449H85V9ZM93 45.0449H94C98.9705 45.0449 103 49.0745 103 54.0449V64.0654C103 69.0359 98.9705 73.0654 94 73.0654H44C43.4477 73.0654 43 73.5131 43 74.0654V99C43 103.971 38.9706 108 34 108H24C19.0294 108 15 103.971 15 99V63C15 60.7909 16.7909 59 19 59C21.2091 59 23 60.7909 23 63V99C23 99.5523 23.4477 100 24 100H34C34.5523 100 35 99.5523 35 99V74.0654C35 69.0949 39.0294 65.0654 44 65.0654H94C94.5522 65.0654 94.9999 64.6177 95 64.0654V54.0449C94.9998 53.4928 94.5522 53.0449 94 53.0449H14C9.02944 53.0449 5 49.0155 5 44.0449V34.0254C5 29.0548 9.02944 25.0254 14 25.0254H15V9C15 4.02944 19.0294 0 24 0H34C38.9706 0 43 4.02944 43 9V25.0254H64C64.5522 25.0254 64.9998 24.5775 65 24.0254V9C65 4.02945 69.0294 0 74 0H84C88.9706 0 93 4.02944 93 9V45.0449Z" fill="#F59E0B"/>
</svg>
